<svg xmlns="http://www.w3.org/2000/svg" viewBox="0 0 418.7 100" width="268" height="64">
  <title>kuverta</title>
  <!-- Lockup for light backgrounds. The wordmark is drawn, not set: no font needed. -->
  <defs>
    <linearGradient id="tile" x1="0" y1="0" x2="0" y2="1"><stop offset="0" stop-color="#22585C"/><stop offset="1" stop-color="#0F2F32"/></linearGradient>
  </defs>
  <path d="M100 50C100 56.98 100.15 63.99 99.83 72.18C99.55 79.35 98.85 88.21 93.53 93.53C88.21 98.85 79.35 99.55 72.18 99.83C63.99 100.15 56.98 100 50 100C43.02 100 36.01 100.15 27.82 99.83C20.65 99.55 11.79 98.85 6.47 93.53C1.15 88.21 0.45 79.35 0.17 72.18C-0.15 63.99 0 56.98 0 50C0 43.02 -0.15 36.01 0.17 27.82C0.45 20.65 1.15 11.79 6.47 6.47C11.79 1.15 20.65 0.45 27.82 0.17C36.01 -0.15 43.02 0 50 0C56.98 0 63.99 -0.15 72.18 0.17C79.35 0.45 88.21 1.15 93.53 6.47C98.85 11.79 99.55 20.65 99.83 27.82C100.15 36.01 100 43.02 100 50z" fill="url(#tile)"/>
  <path d="M18.93 15.05 30.58 15.05 30.58 42.23 81.07 42.23 30.58 63.59 81.07 84.95 18.93 84.95z" fill="#F4EFE6"/>
  <path d="M41.8 63.59 81.07 46.98 81.07 80.21z" fill="#E9A23B"/>
  <path transform="translate(128 -7.7) scale(0.9)" fill="#16292B" d="M0 28 10 28 10 67.51 28.21 50 43.79 50 17.94 74.85 46.11 100 29.89 100 10 82.24 10 100 0 100zM51 50H61V78A12 12 0 0 0 85 78V50H95V100H85V96.44A22 22 0 0 1 51 78zM103 50 114.6 50 125 80.59 135.4 50 147 50 130 100 120 100zM194.24 88.98A22 25 0 1 1 197.72 79H164.43A12 15 0 0 0 185.95 83.39zM187.57 71A12 15 0 0 0 164.43 71zM207 50H217V75A22 25 0 0 1 239 50V60A22 20 0 0 0 217 80V100H207zM248 34H258V50H270V60H258V84A6 6 0 0 0 264 90H274V100H264A16 16 0 0 1 248 84V60H242V50H248zM313 50H323V100H313V95.95A22 25 0 1 1 313 54.05zM313 75A12 15 0 0 0 289 75A12 15 0 0 0 313 75z"/>
</svg>
